<?xml version="1.0" encoding="UTF-8"?>
<svg data-bbox="46 31.198 928.637 1082.827" height="1148" width="1027" xmlns="http://www.w3.org/2000/svg" data-type="color">
    <g>
        <path fill="#FFFFFF" d="m520.443 33.025 2.4 1.276 2.74 1.442 2.917 1.57c1.02.54 2.04 1.08 3.09 1.638 7.533 4.006 15.024 8.09 22.503 12.195 8.262 4.528 16.581 8.945 24.907 13.354 9.887 5.238 19.746 10.519 29.554 15.903 8.11 4.44 16.276 8.77 24.446 13.097 9.887 5.238 19.746 10.519 29.554 15.903 8.11 4.44 16.276 8.77 24.446 13.097 9.887 5.238 19.746 10.519 29.554 15.903 8.11 4.44 16.276 8.77 24.446 13.097 9.887 5.238 19.746 10.519 29.554 15.903 8.11 4.44 16.276 8.77 24.446 13.097 9.983 5.29 19.94 10.62 29.849 16.05 7.236 3.962 14.501 7.87 21.776 11.763l1.781.953 8.988 4.807q8.867 4.741 17.73 9.49l3.515 1.882c8.864 4.75 17.72 9.515 26.572 14.286a9438 9438 0 0 0 22.024 11.825q15.108 8.085 30.202 16.194l3.303 1.772 3.068 1.65 2.682 1.44c.828.459 1.656.917 2.51 1.388l2.618.984C974 277 974 277 974.46 278.875c.182 2.603.192 5.163.156 7.771l.017 3.05c.014 3.405-.009 6.81-.031 10.216q.003 3.678.013 7.358.013 8.025-.018 16.049c-.03 7.955-.032 15.91-.028 23.865.007 13.38-.01 26.76-.04 40.14a21842 21842 0 0 0-.055 42.252l-.005 12.542c-.01 29.631-.044 59.262-.091 88.893q-.07 43.185-.103 86.37l-.002 2.688-.019 26.725-.044 56.972c-.046 55.745-.125 111.49-.21 167.234l-2.505 1.295-13.36 6.905c-7.683 3.97-15.36 7.95-23.01 11.988l-2.363 1.248-2.113 1.115c-8.22 4.337-16.467 8.622-24.709 12.917L891.5 914q-8.694 4.538-17.39 9.07a6243 6243 0 0 0-26.484 13.868 4488 4488 0 0 1-25.367 13.246A3320 3320 0 0 0 803.5 960a4317 4317 0 0 1-25.243 13.184A3321 3321 0 0 0 759.5 983c-8.397 4.431-16.82 8.81-25.247 13.186q-9.33 4.846-18.628 9.752A3272 3272 0 0 1 692.5 1018c-8.519 4.41-17.026 8.84-25.51 13.317-10.96 5.782-21.957 11.497-32.947 17.224a6835 6835 0 0 0-29.418 15.397c-8.44 4.45-16.904 8.851-25.371 13.248q-9.33 4.845-18.63 9.752a3610 3610 0 0 1-16.238 8.512l-3.511 1.833a486 486 0 0 1-7.124 3.62c-7.305 3.662-7.305 3.662-13.978 8.332-3.782 2.912-6.848 5.048-11.773 4.765-10.146-3.295-19.223-9.33-28.232-14.917-4.306-2.636-8.737-5.058-13.143-7.52l-2.721-1.554c-8.892-5.073-17.942-9.837-26.996-14.612a922 922 0 0 1-28.108-15.444c-8.176-4.659-16.478-9.063-24.8-13.453-10.162-5.36-20.23-10.834-30.2-16.547-8.176-4.659-16.478-9.063-24.8-13.453-10.162-5.36-20.23-10.834-30.2-16.547-8.176-4.659-16.478-9.063-24.8-13.453-10.162-5.36-20.23-10.834-30.2-16.547-8.176-4.659-16.478-9.063-24.8-13.453-10.162-5.36-20.23-10.834-30.2-16.547-8.176-4.659-16.478-9.063-24.8-13.453-10.162-5.36-20.23-10.834-30.2-16.547-8.176-4.659-16.478-9.063-24.8-13.453-9.406-4.961-18.76-9.983-28-15.25-11.577-6.577-23.293-12.908-35-19.25V269l24-12c7.05-3.71 7.05-3.71 14.093-7.437C89.685 246.62 95.341 243.812 101 241c7.17-3.563 14.305-7.176 21.375-10.937 7.48-3.98 15.037-7.79 22.625-11.563 7.545-3.75 15.061-7.54 22.5-11.5 8.551-4.552 17.212-8.871 25.886-13.183A798 798 0 0 0 212.5 184c8.55-4.55 17.209-8.87 25.882-13.181a904 904 0 0 0 21.497-11.08c7.342-3.891 14.781-7.583 22.223-11.28a765 765 0 0 0 18.273-9.396c7.48-3.98 15.037-7.79 22.625-11.563 7.545-3.75 15.061-7.54 22.5-11.5 8.551-4.552 17.212-8.871 25.886-13.183A798 798 0 0 0 390.5 93c8.55-4.55 17.209-8.87 25.882-13.181a904 904 0 0 0 21.497-11.08c7.341-3.89 14.778-7.581 22.219-11.278a788 788 0 0 0 18.402-9.46q3.453-1.824 6.911-3.64 2.822-1.484 5.642-2.975c3.244-1.708 6.5-3.393 9.76-5.073l3.093-1.643 2.926-1.494 2.585-1.346c4.07-1.307 7.159-.427 11.026 1.195M511.01 98.53l-2.128 1.113-2.455 1.254-2.658 1.42-2.804 1.449a1372 1372 0 0 0-9.153 4.797 4799 4799 0 0 1-6.418 3.332 4577 4577 0 0 0-13.11 6.828c-8.082 4.222-16.2 8.373-24.32 12.518q-5 2.557-10 5.12c-15.041 7.71-30.096 15.391-45.15 23.076l-2.978 1.52-2.98 1.521c-15.154 7.737-30.303 15.482-45.452 23.226l-19.787 10.113a53736 53736 0 0 0-53.992 27.62 38820 38820 0 0 1-55.79 28.52l-2.979 1.521a69448 69448 0 0 0-31.481 16.085l-2.76 1.41a397758 397758 0 0 0-55.963 28.61l-2.487 1.271-2.295 1.173-1.984 1.014c-1.958.996-3.922 1.977-5.886 2.96v520l24 13c11 6.25 11 6.25 14.136 8.037 8.888 5.04 17.918 9.799 26.954 14.565a922 922 0 0 1 28.109 15.444c8.176 4.66 16.478 9.064 24.8 13.453 10.162 5.36 20.231 10.834 30.2 16.547 8.176 4.66 16.478 9.064 24.8 13.453 10.162 5.36 20.231 10.834 30.2 16.547 8.176 4.66 16.478 9.064 24.8 13.453 10.162 5.36 20.231 10.834 30.2 16.547 8.176 4.66 16.478 9.064 24.8 13.453 10.162 5.36 20.231 10.834 30.2 16.547 8.176 4.66 16.478 9.064 24.8 13.453 9.406 4.962 18.762 9.982 28 15.25l5.434 3.086q4.39 2.493 8.774 4.997a1368 1368 0 0 0 9.855 5.542l3.049 1.753 2.861 1.583 2.508 1.416c4.324 1.499 7.478.33 11.561-1.458l3.22-1.696 1.769-.922c1.89-.988 3.773-1.988 5.657-2.988l3.948-2.07q4.833-2.535 9.655-5.089 3.514-1.856 7.034-3.7 4.516-2.372 9.027-4.754c8.22-4.337 16.468-8.622 24.71-12.917L595.5 1001a39276 39276 0 0 1 17.39-9.07 6243 6243 0 0 0 26.485-13.867c8.437-4.45 16.9-8.85 25.366-13.246A3320 3320 0 0 0 683.5 955a4317 4317 0 0 1 25.242-13.183A3321 3321 0 0 0 727.5 932c8.397-4.43 16.82-8.81 25.246-13.185q9.33-4.846 18.629-9.752A3272 3272 0 0 1 794.5 897c8.518-4.41 17.025-8.84 25.508-13.317 10.962-5.782 21.959-11.496 32.949-17.224a20248 20248 0 0 0 22.541-11.762C888.42 847.95 901.2 840.982 914 834V313l-23-12c-11.571-6.293-11.571-6.293-16.16-8.812-6.468-3.54-12.965-7.023-19.465-10.5l-1.78-.952-8.99-4.808q-8.867-4.741-17.73-9.49l-3.515-1.882c-8.864-4.75-17.72-9.515-26.572-14.286-7.923-4.269-15.854-8.522-23.788-12.77a12177 12177 0 0 1-30.211-16.23c-7.924-4.269-15.855-8.522-23.79-12.77a17499 17499 0 0 1-43.208-23.23 15693 15693 0 0 0-38.561-20.717 11585 11585 0 0 1-28.441-15.283 10111 10111 0 0 0-23.79-12.77q-13.509-7.23-27-14.5a14005 14005 0 0 0-30.22-16.24l-8.168-4.378L517 100l-1.906-1.189c-2.053-1.03-2.053-1.03-4.084-.281" data-color="1"/>
        <path fill="#FFFFFF" d="m518.697 190.208 2.924 1.53 3.299 1.717 3.517 1.857q1.832.96 3.665 1.918c9.121 4.784 18.171 9.694 27.199 14.653 6.418 3.52 12.87 6.977 19.324 10.43l10.77 5.759q8.866 4.741 17.73 9.49l3.514 1.882c8.864 4.75 17.72 9.516 26.572 14.286A10251 10251 0 0 0 661 266.5a12177 12177 0 0 1 30.21 16.23c7.924 4.269 15.855 8.522 23.79 12.77a12177 12177 0 0 1 30.21 16.23c7.924 4.269 15.855 8.522 23.79 12.77q13.51 7.23 27 14.5 14.241 7.673 28.5 15.312l1.872 1.003q2.61 1.4 5.222 2.798l3.021 1.618c1.453.773 2.913 1.533 4.385 2.269v422c-25.122 13.703-25.122 13.703-36.676 19.598-3.531 1.802-7.058 3.614-10.586 5.425l-2.069 1.061a1628 1628 0 0 0-17.834 9.31c-6.43 3.4-12.88 6.755-19.335 10.106a3758 3758 0 0 0-22 11.5 4317 4317 0 0 1-25.242 13.183A3321 3321 0 0 0 686.5 864a4379 4379 0 0 1-25.247 13.186q-9.33 4.844-18.628 9.751A3272 3272 0 0 1 619.5 899c-8.518 4.41-17.025 8.84-25.509 13.317-10.961 5.782-21.958 11.496-32.948 17.224-13.933 7.26-13.933 7.26-27.85 14.55q-2.402 1.262-4.806 2.518a257 257 0 0 0-15.063 8.527c-3.92 1.456-7.292.32-11.027-1.329l-2.762-1.51c-1.034-.562-2.07-1.123-3.135-1.7l-3.338-1.847-3.509-1.915c-8.2-4.482-16.328-9.093-24.443-13.727-8.969-5.092-18.08-9.9-27.2-14.71a922 922 0 0 1-28.11-15.445c-8.176-4.66-16.477-9.064-24.8-13.453-10.162-5.36-20.23-10.834-30.2-16.547-8.176-4.66-16.477-9.064-24.8-13.453-10.162-5.36-20.23-10.834-30.2-16.547-8.176-4.66-16.477-9.064-24.8-13.453-10.162-5.36-20.23-10.834-30.2-16.547-9.407-5.361-18.979-10.407-28.572-15.428C204.324 791.263 192.733 784.631 181 778V357c21.44-11.284 21.44-11.284 32-16.5 7.547-3.75 15.061-7.54 22.5-11.5 8.55-4.551 17.21-8.87 25.882-13.182a904 904 0 0 0 21.497-11.08c7.343-3.891 14.782-7.582 22.224-11.28a765 765 0 0 0 18.272-9.396c7.48-3.98 15.038-7.79 22.625-11.562 7.546-3.751 15.061-7.54 22.5-11.5 8.552-4.552 17.212-8.872 25.887-13.184A798 798 0 0 0 413.5 238c8.55-4.551 17.21-8.87 25.882-13.182a904 904 0 0 0 21.497-11.08c7.326-3.882 14.744-7.575 22.177-11.249 4.886-2.424 9.733-4.89 14.518-7.509l2.623-1.428a351 351 0 0 0 4.828-2.695l2.174-1.19 1.87-1.053c3.569-1.135 6.32.112 9.628 1.594M503.5 259.586l-2.252 1.128a2114 2114 0 0 0-7.248 3.66q-2.496 1.258-4.992 2.513c-8.795 4.433-17.561 8.916-26.25 13.556-7.64 4.065-15.398 7.89-23.147 11.742A798 798 0 0 0 420.5 302c-8.552 4.552-17.212 8.871-25.887 13.183A798 798 0 0 0 375.5 325c-8.55 4.55-17.21 8.87-25.882 13.181a904 904 0 0 0-21.497 11.08c-7.343 3.892-14.782 7.583-22.224 11.28a856 856 0 0 0-20.516 10.59c-7.972 4.222-16.05 8.23-24.136 12.228l-3.151 1.563-2.76 1.362c-4.825 2.483-9.57 5.117-14.334 7.716v348l24 13c11 6.25 11 6.25 14.137 8.038 8.887 5.039 17.917 9.798 26.953 14.564a922 922 0 0 1 28.11 15.445c8.176 4.659 16.477 9.063 24.8 13.453 10.162 5.36 20.23 10.834 30.2 16.547 8.176 4.659 16.477 9.063 24.8 13.453 10.162 5.36 20.23 10.834 30.2 16.547 8.85 5.043 17.848 9.799 26.865 14.538 7.038 3.7 14.039 7.43 20.915 11.423l3.202 1.857a491 491 0 0 1 5.828 3.465l2.595 1.521 2.224 1.339c3.387 1.263 5.856.376 9.086-1.015l1.85-1.003 2.159-1.155 2.326-1.267q2.554-1.369 5.11-2.735l2.755-1.478c5.107-2.721 10.248-5.375 15.385-8.037a3709 3709 0 0 0 22-11.5 4317 4317 0 0 1 25.242-13.184A3321 3321 0 0 0 610.5 836c8.397-4.431 16.82-8.81 25.247-13.186q9.33-4.845 18.628-9.752A3272 3272 0 0 1 677.5 801c8.518-4.41 17.025-8.84 25.509-13.317 10.961-5.782 21.958-11.497 32.948-17.224l8.793-4.584 2.864-1.493a5025 5025 0 0 0 23.648-12.421l1.905-1.007c1.933-1.006 3.883-1.98 5.833-2.954V399c-9.833-5.532-19.648-11-29.623-16.257a5158 5158 0 0 1-10.463-5.536l-2.083-1.104a1430 1430 0 0 1-17.081-9.228 2744 2744 0 0 0-26.156-14.14l-8.989-4.808a25714 25714 0 0 1-17.73-9.49c-1.16-.62-2.32-1.242-3.514-1.882-8.864-4.75-17.72-9.515-26.572-14.286A10094 10094 0 0 0 613 309.499a12177 12177 0 0 1-30.211-16.23 9454 9454 0 0 0-22.025-11.825q-15.107-8.085-30.202-16.194l-3.302-1.772-3.069-1.65-2.681-1.44a98 98 0 0 1-5.147-3.065c-4.857-2.72-8.376-.02-12.863 2.263" data-color="1"/>
        <path fill="#FFFFFF" d="M512.456 354.132c2.937 1.002 5.516 2.27 8.243 3.755l3.373 1.822 3.615 1.978q1.887 1.024 3.776 2.045 3.882 2.103 7.76 4.215c5.582 3.037 11.18 6.043 16.777 9.053l6.437 3.469c6.849 3.687 13.705 7.36 20.563 11.03a12177 12177 0 0 1 30.21 16.231q11.003 5.927 22.021 11.823a18318 18318 0 0 1 32.19 17.265 2385 2385 0 0 1 19.995 10.908l2.8 1.54L697 453c.228 30.345.405 60.69.51 91.035l.047 12.908c.043 11.549.122 23.097.214 34.645q.14 17.774.17 35.549c.012 6.656.043 13.31.116 19.967.068 6.263.089 12.524.074 18.787q.004 3.45.06 6.901c.276 17.409.276 17.409-3.345 21.848-2.619 1.611-4.904 2.511-7.846 3.36-1.426.725-2.84 1.476-4.23 2.267q-2.084 1.066-4.173 2.124l-2.29 1.17q-2.392 1.222-4.788 2.44c-4.16 2.115-8.314 4.241-12.469 6.366l-2.44 1.247a1309 1309 0 0 0-16.86 8.76A2916 2916 0 0 1 618.5 733.5a3755 3755 0 0 0-22 11.5 4379 4379 0 0 1-25.247 13.186 3437 3437 0 0 0-20.84 10.92c-4.793 2.527-9.6 5.03-14.413 7.519l-1.845.954a6448 6448 0 0 1-9.083 4.688l-3.346 1.729-2.982 1.537c-2.771 1.416-2.771 1.416-5.29 3.217C511 790 511 790 508.55 789.87c-2.97-1.014-5.592-2.3-8.355-3.792l-3.419-1.837-3.651-1.991-3.808-2.057c-8.5-4.602-16.918-9.339-25.309-14.135-8.933-5.078-18.012-9.868-27.1-14.661a922 922 0 0 1-28.108-15.444c-8.176-4.659-16.478-9.063-24.8-13.453-9.447-4.984-18.844-10.025-28.125-15.313-10.885-6.193-21.88-12.19-32.875-18.187V450c28.56-14.809 28.56-14.809 42.336-21.652 4.634-2.317 9.214-4.73 13.789-7.16 7.565-4.02 15.204-7.875 22.875-11.688 7.545-3.751 15.061-7.54 22.5-11.5 8.551-4.552 17.212-8.871 25.886-13.184a879 879 0 0 0 21.321-10.992c8.115-4.302 16.344-8.376 24.576-12.447l3.209-1.592 2.855-1.41c2.696-1.329 2.696-1.329 5.184-3.112C510 354 510 354 512.456 354.132m-7.234 70.141-2.964 1.484-3.196 1.618-3.297 1.658a1126 1126 0 0 0-21.398 11.105c-6.734 3.566-13.544 6.97-20.367 10.362-8.3 4.126-16.545 8.329-24.725 12.685-7.879 4.175-15.862 8.136-23.855 12.086-7.575 3.757-14.965 7.715-22.42 11.729v166l24 13c11 6.25 11 6.25 14.136 8.038 8.203 4.65 16.525 9.063 24.864 13.462 9.405 4.962 18.76 9.982 28 15.25l2.722 1.545c3.837 2.178 7.674 4.358 11.501 6.554 3.291 1.88 6.595 3.736 9.902 5.588l3.074 1.779 2.871 1.593 2.524 1.43c3.203 1.013 4.468.274 7.406-1.24l2.102-.985 2.093-1.045 2.388-1.191 2.542-1.278 2.68-1.344c8.278-4.168 16.474-8.483 24.664-12.82 4.585-2.42 9.183-4.815 13.78-7.211l2.913-1.519 11.795-6.147A9629 9629 0 0 0 618 665.999l19-10V489l-23-12c-10.725-5.843-10.725-5.843-15.871-8.667-7.342-4.009-14.737-7.917-22.13-11.832-9.15-4.848-18.29-9.714-27.374-14.688l-2.558-1.399-5.201-2.846a4563 4563 0 0 0-15.341-8.354q-2.615-1.42-5.226-2.847l-3.19-1.725-2.845-1.546c-3.797-1.836-5.422-.64-9.042 1.178" data-color="1"/>
    </g>
</svg>
